<svg id="visual" viewBox="0 0 1920 1080" width="1920" height="1080" xmlns="http://www.w3.org/2000/svg" xmlns:xlink="http://www.w3.org/1999/xlink" version="1.1"><rect x="0" y="0" width="1920" height="1080" fill="#ffffff"></rect><path d="M0 826L64 813.5C128 801 256 776 384 772.3C512 768.7 640 786.3 768 803.7C896 821 1024 838 1152 848.8C1280 859.7 1408 864.3 1536 856.3C1664 848.3 1792 827.7 1856 817.3L1920 807L1920 1081L1856 1081C1792 1081 1664 1081 1536 1081C1408 1081 1280 1081 1152 1081C1024 1081 896 1081 768 1081C640 1081 512 1081 384 1081C256 1081 128 1081 64 1081L0 1081Z" fill="#fa7268"></path><path d="M0 965L64 965.8C128 966.7 256 968.3 384 962.3C512 956.3 640 942.7 768 923.3C896 904 1024 879 1152 880.7C1280 882.3 1408 910.7 1536 917.2C1664 923.7 1792 908.3 1856 900.7L1920 893L1920 1081L1856 1081C1792 1081 1664 1081 1536 1081C1408 1081 1280 1081 1152 1081C1024 1081 896 1081 768 1081C640 1081 512 1081 384 1081C256 1081 128 1081 64 1081L0 1081Z" fill="#c62368"></path></svg>