<svg id="visual" viewBox="0 0 1920 1080" width="1920" height="1080" xmlns="http://www.w3.org/2000/svg" xmlns:xlink="http://www.w3.org/1999/xlink" version="1.1"><rect x="0" y="0" width="1920" height="1080" fill="#FFFFFF"></rect><defs><linearGradient id="grad1_0" x1="43.8%" y1="0%" x2="100%" y2="100%"><stop offset="14.444444444444446%" stop-color="#ffffff" stop-opacity="1"></stop><stop offset="85.55555555555554%" stop-color="#ffffff" stop-opacity="1"></stop></linearGradient></defs><defs><linearGradient id="grad2_0" x1="0%" y1="0%" x2="56.3%" y2="100%"><stop offset="14.444444444444446%" stop-color="#ffffff" stop-opacity="1"></stop><stop offset="85.55555555555554%" stop-color="#ffffff" stop-opacity="1"></stop></linearGradient></defs><g transform="translate(1920, 0)"><path d="M0 648C-72.9 607.4 -145.8 566.8 -223.1 538.6C-300.4 510.4 -382.1 494.7 -449 449C-515.9 403.4 -568 327.8 -598.7 248C-629.4 168.2 -638.7 84.1 -648 0L0 0Z" fill="#C62368"></path></g><g transform="translate(0, 1080)"><path d="M0 -648C87.9 -637.5 175.8 -627 243 -586.7C310.2 -546.4 356.7 -476.3 418.6 -418.6C480.5 -360.9 557.9 -315.7 598.7 -248C639.5 -180.3 643.7 -90.1 648 0L0 0Z" fill="#C62368"></path></g></svg>